<svg width="143px" height="52px" viewBox="0 0 143 52" version="1.1" xmlns="http://www.w3.org/2000/svg" xmlns:xlink="http://www.w3.org/1999/xlink">
    <g id="Concept-1" stroke="none" stroke-width="1" fill="none" fill-rule="evenodd">
        <g id="Desktop-HD" transform="translate(-128.000000, -23.000000)" fill="#FFFFFF">
            <g id="Header">
                <g id="Header-1">
                    <g id="Logo-/-White" transform="translate(128.000000, 23.000000)">
                        <g id="Logo">
                            <path d="M53.72928,16.321536 C51.9552,15.916032 49.724928,15.2064 48.964608,14.902272 C48.356352,14.69952 48.1536,14.598144 48.052224,14.598144 C45.467136,14.44608 43.388928,12.469248 43.388928,9.022464 C43.388928,6.690816 44.301312,4.05504 45.923328,2.433024 C47.13984,1.216512 48.863232,0.50688 50.586624,0.50688 C54.286848,0.50688 55.7568,3.244032 55.7568,6.08256 C55.7568,8.312832 54.945792,10.999296 53.374464,12.570624 C52.664832,13.280256 51.651072,13.888512 50.738688,14.141952 L50.738688,14.19264 C51.9552,14.44608 53.2224,14.69952 54.388224,14.902272 L53.72928,16.321536 Z M47.241216,3.29472 C45.923328,4.612608 45.11232,7.09632 45.11232,8.971776 C45.11232,11.15136 46.075392,13.229568 48.711168,13.229568 C49.978368,13.229568 51.042816,12.722688 51.853824,11.91168 C53.171712,10.593792 53.932032,8.059392 53.932032,6.183936 C53.932032,4.409856 53.323776,1.976832 50.333184,1.976832 C49.16736,1.976832 48.102912,2.483712 47.241216,3.29472 Z" id="Shape" fill-rule="nonzero"></path>
                            <g id="Group" transform="translate(56.770560, 0.000000)" fill-rule="nonzero">
                                <path d="M9.427968,4.612608 L8.11008,11.556864 C7.907328,12.672 7.755264,13.584384 7.653888,14.395392 L6.133248,14.395392 L6.386688,12.570624 L6.336,12.570624 C5.474304,13.837824 4.156416,14.648832 2.889216,14.648832 C1.622016,14.648832 0.304128,14.040576 0.304128,11.810304 C0.304128,11.354112 0.354816,10.796544 0.50688,10.188288 L1.571328,4.612608 L3.244032,4.612608 L2.230272,10.086912 C2.128896,10.64448 2.02752,11.100672 2.02752,11.506176 C2.02752,12.519936 2.433024,13.229568 3.598848,13.229568 C4.81536,13.229568 6.386688,11.810304 6.792192,9.63072 L7.755264,4.612608 L9.427968,4.612608 Z" id="Path"></path>
                                <path d="M17.639424,13.888512 C16.929792,14.294016 15.71328,14.648832 14.395392,14.648832 C11.810304,14.648832 10.64448,12.874752 10.64448,10.695168 C10.64448,7.755264 12.824064,4.409856 16.017408,4.409856 C17.892864,4.409856 18.906624,5.524992 18.906624,6.944256 C18.906624,9.529344 16.017408,10.188288 12.367872,10.1376 C12.266496,10.543104 12.367872,11.455488 12.570624,12.013056 C12.976128,12.874752 13.736448,13.330944 14.750208,13.330944 C15.916032,13.330944 16.777728,12.976128 17.385984,12.621312 L17.639424,13.888512 Z M15.763968,5.727744 C14.141952,5.727744 12.976128,7.299072 12.570624,8.819712 C15.2064,8.819712 17.284608,8.515584 17.284608,6.994944 C17.23392,6.183936 16.625664,5.727744 15.763968,5.727744 Z" id="Shape"></path>
                                <path d="M26.813952,13.888512 C26.10432,14.294016 24.887808,14.648832 23.56992,14.648832 C20.984832,14.648832 19.819008,12.874752 19.819008,10.695168 C19.819008,7.755264 21.998592,4.409856 25.191936,4.409856 C27.067392,4.409856 28.081152,5.524992 28.081152,6.944256 C28.081152,9.529344 25.191936,10.188288 21.5424,10.1376 C21.441024,10.543104 21.5424,11.455488 21.745152,12.013056 C22.150656,12.874752 22.910976,13.330944 23.924736,13.330944 C25.09056,13.330944 25.952256,12.976128 26.560512,12.621312 L26.813952,13.888512 Z M24.938496,5.727744 C23.31648,5.727744 22.150656,7.299072 21.745152,8.819712 C24.380928,8.819712 26.459136,8.515584 26.459136,6.994944 C26.459136,6.183936 25.85088,5.727744 24.938496,5.727744 Z" id="Shape"></path>
                                <path d="M28.89216,14.44608 L30.210048,7.501824 C30.4128,6.386688 30.564864,5.474304 30.66624,4.663296 L32.18688,4.663296 L31.93344,6.58944 L31.984128,6.58944 C32.845824,5.220864 34.163712,4.460544 35.633664,4.460544 C36.799488,4.460544 38.117376,5.119488 38.117376,7.197696 C38.117376,7.6032 38.016,8.262144 37.914624,8.769024 L36.799488,14.496768 L35.126784,14.496768 L36.191232,8.819712 C36.292608,8.414208 36.343296,7.958016 36.343296,7.552512 C36.343296,6.538752 35.937792,5.82912 34.822656,5.82912 C33.606144,5.82912 31.93344,7.248384 31.477248,9.681408 L30.564864,14.44608 L28.89216,14.44608 L28.89216,14.44608 Z" id="Path"></path>
                                <path d="M39.840768,12.722688 C40.29696,13.026816 41.158656,13.330944 41.969664,13.330944 C43.0848,13.330944 43.84512,12.621312 43.84512,11.708928 C43.84512,10.948608 43.490304,10.492416 42.476544,9.88416 C41.361408,9.275904 40.702464,8.36352 40.702464,7.400448 C40.702464,5.677056 42.172416,4.359168 44.250624,4.359168 C45.163008,4.359168 45.923328,4.612608 46.278144,4.866048 L45.821952,6.133248 C45.467136,5.930496 44.85888,5.677056 44.09856,5.677056 C43.0848,5.677056 42.375168,6.285312 42.375168,7.147008 C42.375168,7.85664 42.83136,8.312832 43.693056,8.769024 C44.808192,9.37728 45.517824,10.238976 45.517824,11.354112 C45.517824,13.43232 43.84512,14.598144 41.766912,14.598144 C40.702464,14.598144 39.79008,14.294016 39.333888,13.9392 L39.840768,12.722688 Z" id="Path"></path>
                                <polygon id="Path" points="47.342592 14.44608 50.079744 0.050688 51.752448 0.050688 49.015296 14.44608"></polygon>
                                <path d="M58.443264,14.44608 C58.443264,13.837824 58.54464,12.92544 58.646016,11.91168 L58.595328,11.91168 C57.53088,13.9392 56.162304,14.648832 54.793728,14.648832 C53.070336,14.648832 51.9552,13.280256 51.9552,11.4048 C51.9552,8.008704 54.4896,4.409856 58.747392,4.409856 C59.659776,4.409856 60.724224,4.56192 61.383168,4.81536 L60.369408,9.934848 C60.06528,11.65824 59.913216,13.381632 59.963904,14.496768 L58.443264,14.496768 L58.443264,14.44608 Z M59.5584,5.879808 C59.30496,5.82912 58.950144,5.727744 58.392576,5.727744 C55.858176,5.727744 53.779968,8.36352 53.779968,11.100672 C53.779968,12.215808 54.185472,13.280256 55.452672,13.280256 C56.871936,13.280256 58.493952,11.455488 59.000832,8.819712 L59.5584,5.879808 Z" id="Shape"></path>
                                <path d="M62.548992,14.44608 L63.86688,7.501824 C64.069632,6.386688 64.221696,5.474304 64.323072,4.663296 L65.843712,4.663296 L65.590272,6.58944 L65.64096,6.58944 C66.502656,5.220864 67.820544,4.460544 69.290496,4.460544 C70.45632,4.460544 71.774208,5.119488 71.774208,7.197696 C71.774208,7.6032 71.672832,8.262144 71.571456,8.769024 L70.45632,14.44608 L68.783616,14.44608 L69.848064,8.769024 C69.94944,8.36352 70.000128,7.907328 70.000128,7.501824 C70.000128,6.488064 69.594624,5.778432 68.479488,5.778432 C67.262976,5.778432 65.590272,7.197696 65.13408,9.63072 L64.221696,14.395392 L62.548992,14.395392 L62.548992,14.44608 Z" id="Path"></path>
                                <path d="M83.787264,0.050688 L81.658368,11.354112 C81.455616,12.367872 81.303552,13.483008 81.252864,14.44608 L79.732224,14.44608 L79.985664,12.519936 L79.934976,12.519936 C79.022592,13.9392 77.80608,14.69952 76.386816,14.69952 C74.460672,14.69952 73.446912,13.128192 73.446912,11.15136 C73.446912,7.653888 76.032,4.460544 79.529472,4.460544 C80.137728,4.460544 80.84736,4.612608 81.252864,4.81536 L82.11456,0.101376 L83.787264,0.101376 L83.787264,0.050688 Z M80.999424,6.183936 C80.644608,5.981184 80.08704,5.778432 79.377408,5.778432 C77.04576,5.778432 75.220992,8.262144 75.220992,10.89792 C75.220992,12.063744 75.626496,13.330944 77.04576,13.330944 C78.363648,13.330944 79.884288,11.860992 80.34048,9.63072 L80.999424,6.183936 Z" id="Shape"></path>
                            </g>
                            <path d="M44.504064,42.679296 C44.909568,42.57792 45.416448,42.527232 45.974016,42.527232 C46.683648,42.527232 47.190528,42.679296 47.545344,42.983424 C47.849472,43.236864 48.052224,43.59168 48.052224,44.047872 C48.052224,44.909568 47.342592,45.568512 46.582272,45.771264 L46.582272,45.771264 C47.190528,45.974016 47.697408,46.480896 47.697408,47.291904 C47.697408,48.001536 47.342592,48.559104 46.8864,48.863232 C46.328832,49.268736 45.6192,49.4208 44.656128,49.4208 C44.047872,49.4208 43.540992,49.370112 43.236864,49.319424 L44.504064,42.679296 Z M44.199936,48.711168 C44.402688,48.761856 44.656128,48.761856 44.909568,48.761856 C45.923328,48.761856 46.835712,48.356352 46.835712,47.241216 C46.835712,46.430208 46.176768,46.075392 45.36576,46.075392 L44.706816,46.075392 L44.199936,48.711168 Z M44.808192,45.467136 L45.416448,45.467136 C46.37952,45.467136 47.13984,44.960256 47.13984,44.149248 C47.13984,43.490304 46.63296,43.186176 45.923328,43.186176 C45.6192,43.186176 45.36576,43.236864 45.213696,43.236864 L44.808192,45.467136 Z" id="Shape" fill-rule="nonzero"></path>
                            <g id="Group" transform="translate(48.153600, 43.084800)" fill-rule="nonzero">
                                <path d="M3.8016,6.031872 C3.446784,6.234624 2.838528,6.437376 2.179584,6.437376 C0.861696,6.437376 0.304128,5.57568 0.304128,4.460544 C0.304128,2.990592 1.419264,1.317888 2.990592,1.317888 C3.902976,1.317888 4.409856,1.875456 4.409856,2.585088 C4.409856,3.852288 2.939904,4.207104 1.165824,4.207104 C1.115136,4.409856 1.165824,4.866048 1.2672,5.119488 C1.469952,5.57568 1.875456,5.778432 2.382336,5.778432 C2.939904,5.778432 3.396096,5.57568 3.700224,5.423616 L3.8016,6.031872 Z M2.838528,1.976832 C2.02752,1.976832 1.419264,2.737152 1.216512,3.54816 C2.5344,3.54816 3.54816,3.396096 3.54816,2.635776 C3.598848,2.179584 3.29472,1.976832 2.838528,1.976832 Z" id="Shape"></path>
                                <path d="M6.944256,0.101376 L6.690816,1.419264 L7.85664,1.419264 L7.704576,2.078208 L6.58944,2.078208 L6.133248,4.460544 C6.08256,4.713984 6.031872,4.967424 6.031872,5.271552 C6.031872,5.57568 6.183936,5.727744 6.488064,5.727744 C6.640128,5.727744 6.792192,5.727744 6.893568,5.677056 L6.84288,6.336 C6.690816,6.386688 6.437376,6.437376 6.183936,6.437376 C5.423616,6.437376 5.170176,5.981184 5.170176,5.474304 C5.170176,5.170176 5.220864,4.916736 5.271552,4.56192 L5.778432,2.078208 L5.0688,2.078208 L5.220864,1.419264 L5.930496,1.419264 L6.133248,0.304128 L6.944256,0.101376 Z" id="Path"></path>
                            </g>
                            <path d="M58.189824,43.186176 L57.936384,44.504064 L59.102208,44.504064 L58.950144,45.163008 L57.78432,45.163008 L57.328128,47.545344 C57.27744,47.798784 57.226752,48.052224 57.226752,48.356352 C57.226752,48.66048 57.378816,48.812544 57.682944,48.812544 C57.835008,48.812544 57.987072,48.812544 58.088448,48.761856 L58.03776,49.4208 C57.885696,49.471488 57.632256,49.522176 57.378816,49.522176 C56.618496,49.522176 56.365056,49.065984 56.365056,48.559104 C56.365056,48.254976 56.415744,48.001536 56.466432,47.64672 L56.973312,45.163008 L56.26368,45.163008 L56.415744,44.504064 L57.125376,44.504064 L57.328128,43.388928 L58.189824,43.186176 Z" id="Path" fill-rule="nonzero"></path>
                            <g id="Group" transform="translate(58.798080, 42.071040)" fill-rule="nonzero">
                                <path d="M3.750912,7.045632 C3.396096,7.248384 2.78784,7.451136 2.128896,7.451136 C0.811008,7.451136 0.25344,6.58944 0.25344,5.474304 C0.25344,4.004352 1.368576,2.331648 2.939904,2.331648 C3.852288,2.331648 4.359168,2.889216 4.359168,3.598848 C4.359168,4.866048 2.889216,5.220864 1.115136,5.220864 C1.064448,5.423616 1.115136,5.879808 1.216512,6.133248 C1.419264,6.58944 1.824768,6.792192 2.331648,6.792192 C2.889216,6.792192 3.345408,6.58944 3.649536,6.437376 L3.750912,7.045632 Z M2.78784,2.990592 C1.976832,2.990592 1.368576,3.750912 1.165824,4.56192 C2.483712,4.56192 3.497472,4.409856 3.497472,3.649536 C3.54816,3.193344 3.244032,2.990592 2.78784,2.990592 Z" id="Shape"></path>
                                <path d="M4.713984,7.34976 L5.32224,4.207104 C5.423616,3.54816 5.524992,2.939904 5.57568,2.483712 L6.336,2.483712 C6.285312,2.838528 6.234624,3.193344 6.183936,3.54816 L6.234624,3.54816 C6.538752,2.889216 7.09632,2.382336 7.755264,2.382336 C7.805952,2.382336 7.907328,2.382336 8.008704,2.382336 L7.85664,3.193344 C7.805952,3.193344 7.704576,3.193344 7.653888,3.193344 C6.944256,3.193344 6.285312,4.05504 6.08256,5.220864 L5.677056,7.400448 L4.713984,7.400448 L4.713984,7.34976 Z" id="Path"></path>
                                <path d="M9.12384,9.326592 L10.086912,4.156416 C10.188288,3.54816 10.289664,2.889216 10.340352,2.433024 L11.100672,2.433024 L10.948608,3.345408 L10.948608,3.345408 C11.4048,2.686464 12.063744,2.331648 12.722688,2.331648 C13.787136,2.331648 14.243328,3.193344 14.243328,4.105728 C14.243328,5.82912 13.026816,7.451136 11.354112,7.451136 C10.847232,7.451136 10.492416,7.34976 10.289664,7.248384 L10.289664,7.248384 L9.88416,9.37728 L9.12384,9.37728 L9.12384,9.326592 Z M10.543104,6.538752 C10.745856,6.690816 11.100672,6.792192 11.455488,6.792192 C12.519936,6.792192 13.43232,5.423616 13.43232,4.156416 C13.43232,3.649536 13.17888,3.04128 12.469248,3.04128 C11.810304,3.04128 10.999296,3.8016 10.745856,5.170176 L10.543104,6.538752 Z" id="Shape"></path>
                                <path d="M19.616256,2.433024 L18.957312,5.930496 C18.855936,6.488064 18.805248,6.944256 18.75456,7.34976 L17.99424,7.34976 L18.146304,6.437376 L18.146304,6.437376 C17.690112,7.09632 17.081856,7.451136 16.422912,7.451136 C15.814656,7.451136 15.155712,7.147008 15.155712,6.031872 C15.155712,5.778432 15.2064,5.524992 15.257088,5.220864 L15.763968,2.433024 L16.625664,2.433024 L16.118784,5.170176 C16.068096,5.423616 16.017408,5.677056 16.017408,5.879808 C16.017408,6.386688 16.22016,6.741504 16.828416,6.741504 C17.436672,6.741504 18.196992,6.031872 18.399744,4.967424 L18.855936,2.433024 L19.616256,2.433024 L19.616256,2.433024 Z" id="Path"></path>
                                <path d="M22.201344,0.152064 L21.5424,3.345408 L21.5424,3.345408 C21.998592,2.686464 22.606848,2.331648 23.265792,2.331648 C24.33024,2.331648 24.735744,3.244032 24.735744,4.105728 C24.735744,5.626368 23.671296,7.451136 21.694464,7.451136 C20.832768,7.451136 20.173824,7.09632 20.173824,6.183936 C20.173824,5.930496 20.224512,5.677056 20.2752,5.423616 L21.339648,0.152064 L22.201344,0.152064 L22.201344,0.152064 Z M21.187584,5.423616 C21.136896,5.57568 21.136896,5.778432 21.136896,6.031872 C21.136896,6.488064 21.390336,6.741504 21.947904,6.741504 C23.215104,6.741504 23.975424,5.220864 23.975424,4.156416 C23.975424,3.54816 23.721984,2.990592 23.06304,2.990592 C22.353408,2.990592 21.593088,3.750912 21.339648,4.916736 L21.187584,5.423616 Z" id="Shape"></path>
                                <polygon id="Path" points="25.293312 7.34976 26.661888 0.152064 27.523584 0.152064 26.155008 7.34976"></polygon>
                                <path d="M27.523584,7.34976 L28.486656,2.433024 L29.348352,2.433024 L28.38528,7.34976 L27.523584,7.34976 Z M28.588032,1.064448 C28.588032,0.76032 28.841472,0.50688 29.1456,0.50688 C29.449728,0.50688 29.65248,0.709632 29.65248,1.01376 C29.65248,1.368576 29.39904,1.571328 29.094912,1.571328 C28.790784,1.571328 28.588032,1.368576 28.588032,1.064448 Z" id="Shape"></path>
                                <path d="M33.099264,7.147008 C32.845824,7.248384 32.338944,7.451136 31.68,7.451136 C30.4128,7.451136 29.804544,6.58944 29.804544,5.57568 C29.804544,3.902976 31.021056,2.382336 32.795136,2.382336 C33.251328,2.382336 33.656832,2.5344 33.808896,2.585088 L33.555456,3.244032 C33.352704,3.142656 33.099264,3.04128 32.744448,3.04128 C31.477248,3.04128 30.66624,4.30848 30.66624,5.474304 C30.66624,6.285312 31.071744,6.792192 31.882752,6.792192 C32.389632,6.792192 32.744448,6.640128 32.997888,6.538752 L33.099264,7.147008 Z" id="Path"></path>
                                <path d="M35.73504,6.488064 C35.98848,6.640128 36.393984,6.792192 36.799488,6.792192 C37.357056,6.792192 37.711872,6.437376 37.711872,5.981184 C37.711872,5.57568 37.559808,5.372928 37.052928,5.0688 C36.49536,4.764672 36.191232,4.30848 36.191232,3.8016 C36.191232,2.939904 36.951552,2.28096 37.965312,2.28096 C38.421504,2.28096 38.827008,2.382336 38.979072,2.5344 L38.725632,3.193344 C38.573568,3.091968 38.218752,2.990592 37.863936,2.990592 C37.357056,2.990592 37.00224,3.29472 37.00224,3.750912 C37.00224,4.105728 37.25568,4.30848 37.661184,4.56192 C38.218752,4.866048 38.573568,5.32224 38.573568,5.82912 C38.573568,6.84288 37.711872,7.451136 36.698112,7.451136 C36.191232,7.451136 35.684352,7.299072 35.4816,7.09632 L35.73504,6.488064 Z" id="Path"></path>
                                <path d="M42.932736,7.045632 C42.57792,7.248384 41.969664,7.451136 41.31072,7.451136 C39.992832,7.451136 39.435264,6.58944 39.435264,5.474304 C39.435264,4.004352 40.5504,2.331648 42.121728,2.331648 C43.034112,2.331648 43.540992,2.889216 43.540992,3.598848 C43.540992,4.866048 42.07104,5.220864 40.29696,5.220864 C40.246272,5.423616 40.29696,5.879808 40.398336,6.133248 C40.601088,6.58944 41.006592,6.792192 41.513472,6.792192 C42.07104,6.792192 42.527232,6.58944 42.83136,6.437376 L42.932736,7.045632 Z M41.969664,2.990592 C41.158656,2.990592 40.5504,3.750912 40.347648,4.56192 C41.665536,4.56192 42.679296,4.409856 42.679296,3.649536 C42.729984,3.193344 42.425856,2.990592 41.969664,2.990592 Z" id="Shape"></path>
                            </g>
                            <path d="M102.541824,49.4208 L103.15008,46.278144 C103.251456,45.6192 103.352832,45.010944 103.40352,44.554752 L104.16384,44.554752 C104.113152,44.909568 104.062464,45.264384 104.011776,45.6192 L104.062464,45.6192 C104.366592,44.960256 104.92416,44.453376 105.583104,44.453376 C105.633792,44.453376 105.735168,44.453376 105.836544,44.453376 L105.68448,45.264384 C105.633792,45.264384 105.532416,45.264384 105.481728,45.264384 C104.772096,45.264384 104.113152,46.12608 103.9104,47.291904 L103.504896,49.471488 L102.541824,49.471488 L102.541824,49.4208 Z" id="Path" fill-rule="nonzero"></path>
                            <g id="Group" transform="translate(105.937920, 42.577920)" fill-rule="nonzero">
                                <path d="M1.064448,1.926144 L1.469952,4.713984 C1.52064,5.271552 1.622016,5.626368 1.622016,5.930496 L1.672704,5.930496 C1.77408,5.677056 1.926144,5.32224 2.179584,4.764672 L3.700224,1.926144 L4.612608,1.926144 L1.875456,6.84288 L1.064448,6.84288 L0.202752,1.926144 L1.064448,1.926144 L1.064448,1.926144 Z" id="Path"></path>
                                <path d="M4.460544,6.84288 L5.423616,1.926144 L6.285312,1.926144 L5.32224,6.84288 L4.460544,6.84288 Z M5.57568,0.557568 C5.57568,0.25344 5.82912,0 6.133248,0 C6.437376,0 6.640128,0.202752 6.640128,0.50688 C6.640128,0.861696 6.386688,1.064448 6.08256,1.064448 C5.778432,1.064448 5.57568,0.861696 5.57568,0.557568 Z" id="Shape"></path>
                            </g>
                            <path d="M116.024832,49.218048 C115.771392,49.319424 115.264512,49.522176 114.605568,49.522176 C113.338368,49.522176 112.730112,48.66048 112.730112,47.64672 C112.730112,45.974016 113.946624,44.453376 115.720704,44.453376 C116.176896,44.453376 116.5824,44.60544 116.734464,44.656128 L116.481024,45.315072 C116.278272,45.213696 116.024832,45.11232 115.670016,45.11232 C114.402816,45.11232 113.591808,46.37952 113.591808,47.545344 C113.591808,48.356352 113.997312,48.863232 114.80832,48.863232 C115.3152,48.863232 115.670016,48.711168 115.923456,48.609792 L116.024832,49.218048 Z" id="Path" fill-rule="nonzero"></path>
                            <g id="Group" transform="translate(116.582400, 44.098560)" fill-rule="nonzero">
                                <path d="M3.700224,5.018112 C3.345408,5.220864 2.737152,5.423616 2.078208,5.423616 C0.76032,5.423616 0.202752,4.56192 0.202752,3.446784 C0.202752,1.976832 1.317888,0.304128 2.889216,0.304128 C3.8016,0.304128 4.30848,0.861696 4.30848,1.571328 C4.30848,2.838528 2.838528,3.193344 1.064448,3.193344 C1.01376,3.396096 1.064448,3.852288 1.165824,4.105728 C1.368576,4.56192 1.77408,4.764672 2.28096,4.764672 C2.838528,4.764672 3.29472,4.56192 3.598848,4.409856 L3.700224,5.018112 Z M2.737152,0.963072 C1.926144,0.963072 1.317888,1.723392 1.115136,2.5344 C2.433024,2.5344 3.446784,2.382336 3.446784,1.622016 C3.497472,1.165824 3.193344,0.963072 2.737152,0.963072 Z" id="Shape"></path>
                                <path d="M4.663296,4.460544 C4.916736,4.612608 5.32224,4.764672 5.727744,4.764672 C6.285312,4.764672 6.640128,4.409856 6.640128,3.953664 C6.640128,3.54816 6.488064,3.345408 5.981184,3.04128 C5.423616,2.737152 5.119488,2.28096 5.119488,1.77408 C5.119488,0.912384 5.879808,0.25344 6.893568,0.25344 C7.34976,0.25344 7.755264,0.354816 7.907328,0.50688 L7.653888,1.165824 C7.501824,1.064448 7.147008,0.963072 6.792192,0.963072 C6.285312,0.963072 5.930496,1.2672 5.930496,1.723392 C5.930496,2.078208 6.183936,2.28096 6.58944,2.5344 C7.147008,2.838528 7.501824,3.29472 7.501824,3.8016 C7.501824,4.81536 6.640128,5.423616 5.626368,5.423616 C5.119488,5.423616 4.612608,5.271552 4.409856,5.0688 L4.663296,4.460544 Z" id="Path"></path>
                            </g>
                            <path d="M46.835712,30.108672 L45.416448,34.417152 L43.59168,34.417152 L48.254976,20.731392 L50.383872,20.731392 L55.047168,34.417152 L53.171712,34.417152 L51.70176,30.108672 L46.835712,30.108672 Z M51.296256,28.740096 L49.978368,24.786432 C49.67424,23.874048 49.471488,23.06304 49.268736,22.30272 L49.218048,22.30272 C49.015296,23.113728 48.812544,23.924736 48.508416,24.786432 L47.190528,28.740096 L51.296256,28.740096 Z" id="Shape" fill-rule="nonzero"></path>
                            <g id="Group" transform="translate(56.263680, 19.768320)" fill-rule="nonzero">
                                <path d="M8.667648,11.962368 C8.667648,12.976128 8.667648,13.888512 8.769024,14.648832 L7.197696,14.648832 L7.09632,13.026816 L7.045632,13.026816 C6.58944,13.837824 5.524992,14.851584 3.8016,14.851584 C2.28096,14.851584 0.405504,13.989888 0.405504,10.543104 L0.405504,4.81536 L2.179584,4.81536 L2.179584,10.238976 C2.179584,12.114432 2.737152,13.381632 4.359168,13.381632 C5.57568,13.381632 6.386688,12.570624 6.690816,11.759616 C6.792192,11.506176 6.84288,11.15136 6.84288,10.847232 L6.84288,4.81536 L8.61696,4.81536 L8.61696,11.962368 L8.667648,11.962368 Z" id="Path"></path>
                                <path d="M20.123136,0.25344 L20.123136,12.114432 C20.123136,12.976128 20.123136,13.989888 20.224512,14.648832 L18.602496,14.648832 L18.50112,12.92544 L18.450432,12.92544 C17.892864,14.040576 16.72704,14.851584 15.105024,14.851584 C12.722688,14.851584 10.89792,12.824064 10.89792,9.88416 C10.89792,6.640128 12.92544,4.612608 15.307776,4.612608 C16.828416,4.612608 17.842176,5.32224 18.24768,6.133248 L18.298368,6.133248 L18.298368,0.25344 L20.123136,0.25344 Z M18.298368,8.819712 C18.298368,8.61696 18.298368,8.312832 18.196992,8.059392 C17.943552,6.944256 16.98048,5.981184 15.611904,5.981184 C13.787136,5.981184 12.672,7.6032 12.672,9.782784 C12.672,11.759616 13.635072,13.43232 15.561216,13.43232 C16.777728,13.43232 17.842176,12.621312 18.196992,11.303424 C18.24768,11.049984 18.298368,10.796544 18.298368,10.543104 L18.298368,8.819712 L18.298368,8.819712 Z" id="Shape"></path>
                                <path d="M25.039872,2.078208 C25.039872,2.686464 24.634368,3.193344 23.924736,3.193344 C23.31648,3.193344 22.860288,2.686464 22.860288,2.078208 C22.860288,1.469952 23.31648,0.963072 23.975424,0.963072 C24.634368,0.963072 25.039872,1.419264 25.039872,2.078208 Z M23.06304,14.648832 L23.06304,4.81536 L24.83712,4.81536 L24.83712,14.648832 L23.06304,14.648832 Z" id="Shape"></path>
                                <path d="M29.956608,2.02752 L29.956608,4.866048 L32.491008,4.866048 L32.491008,6.234624 L29.956608,6.234624 L29.956608,11.506176 C29.956608,12.722688 30.311424,13.43232 31.274496,13.43232 C31.730688,13.43232 32.085504,13.381632 32.288256,13.330944 L32.389632,14.648832 C32.034816,14.800896 31.477248,14.902272 30.818304,14.902272 C30.007296,14.902272 29.297664,14.648832 28.89216,14.141952 C28.38528,13.635072 28.182528,12.722688 28.182528,11.607552 L28.182528,6.183936 L26.661888,6.183936 L26.661888,4.81536 L28.182528,4.81536 L28.182528,2.483712 L29.956608,2.02752 Z" id="Path"></path>
                            </g>
                            <path d="M106.799616,27.422208 C106.799616,32.136192 103.961088,34.619904 100.463616,34.619904 C96.864768,34.619904 94.330368,31.832064 94.330368,27.675648 C94.330368,23.31648 97.016832,20.477952 100.666368,20.477952 C104.41728,20.52864 106.799616,23.367168 106.799616,27.422208 Z M96.205824,27.675648 C96.205824,30.615552 97.777152,33.20064 100.564992,33.20064 C103.352832,33.20064 104.92416,30.615552 104.92416,27.523584 C104.92416,24.786432 103.504896,21.947904 100.564992,21.947904 C97.675776,21.947904 96.205824,24.634368 96.205824,27.675648 Z" id="Shape" fill-rule="nonzero"></path>
                            <path d="M121.6512,21.745152 C121.195008,21.441024 120.485376,21.238272 119.674368,21.238272 C117.798912,21.238272 117.241344,22.55616 117.241344,24.127488 L117.241344,24.634368 L122.969088,24.634368 L122.969088,34.46784 L121.14432,34.46784 L121.14432,25.952256 L117.241344,25.952256 L117.241344,34.417152 L115.467264,34.417152 L115.467264,25.952256 L111.310848,25.952256 L111.310848,34.417152 L109.536768,34.417152 L109.536768,25.952256 L108.168192,25.952256 L108.168192,24.58368 L109.536768,24.58368 L109.536768,24.228864 C109.536768,23.012352 109.840896,21.79584 110.702592,20.984832 C111.26016,20.376576 112.121856,20.02176 113.236992,20.02176 C113.895936,20.02176 114.605568,20.2752 114.960384,20.427264 L114.453504,21.745152 C114.149376,21.593088 113.693184,21.390336 113.236992,21.390336 C112.679424,21.390336 112.27392,21.593088 111.969792,21.897216 C111.462912,22.404096 111.310848,23.31648 111.310848,24.178176 L111.310848,24.58368 L115.467264,24.58368 L115.467264,24.0768 C115.467264,21.491712 116.987904,19.819008 119.775744,19.819008 C120.688128,19.819008 121.701888,20.072448 122.208768,20.427264 L121.6512,21.745152 Z" id="Path" fill-rule="nonzero"></path>
                            <path d="M132.903936,34.062336 C132.447744,34.315776 131.383296,34.619904 130.065408,34.619904 C127.125504,34.619904 125.19936,32.592384 125.19936,29.601792 C125.19936,26.560512 127.277568,24.380928 130.470912,24.380928 C131.53536,24.380928 132.447744,24.634368 132.954624,24.887808 L132.54912,26.256384 C132.143616,26.002944 131.433984,25.800192 130.470912,25.800192 C128.24064,25.800192 127.024128,27.472896 127.024128,29.500416 C127.024128,31.781376 128.49408,33.149952 130.420224,33.149952 C131.433984,33.149952 132.092928,32.896512 132.599808,32.643072 L132.903936,34.062336 Z" id="Path" fill-rule="nonzero"></path>
                            <path d="M135.84384,29.804544 C135.894528,32.237568 137.415168,33.20064 139.189248,33.20064 C140.456448,33.20064 141.216768,32.997888 141.9264,32.69376 L142.230528,33.96096 C141.622272,34.265088 140.507136,34.569216 138.986496,34.569216 C135.945216,34.569216 134.171136,32.592384 134.171136,29.601792 C134.171136,26.6112 135.894528,24.33024 138.783744,24.33024 C141.977088,24.33024 142.838784,27.168768 142.838784,28.942848 C142.838784,29.297664 142.788096,29.601792 142.788096,29.753856 L135.84384,29.753856 L135.84384,29.804544 Z M141.064704,28.537344 C141.064704,27.422208 140.608512,25.648128 138.580992,25.648128 C136.756224,25.648128 135.995904,27.320832 135.84384,28.537344 L141.064704,28.537344 Z" id="Shape" fill-rule="nonzero"></path>
                            <circle id="Oval" fill-rule="nonzero" cx="5.57568" cy="7.451136" r="5.57568"></circle>
                            <circle id="Oval" fill-rule="nonzero" cx="5.57568" cy="28.233216" r="5.57568"></circle>
                            <circle id="Oval" fill-rule="nonzero" cx="24.83712" cy="28.233216" r="5.57568"></circle>
                        </g>
                    </g>
                </g>
            </g>
        </g>
    </g>
</svg>
