<svg xmlns="http://www.w3.org/2000/svg" width="27" height="29" viewBox="0 0 27 29">
    <g fill="#FFFFFF" fill-rule="nonzero" transform="translate(0 -.935)">
        <path d="M26.443 28.786h-1.221V10.48c0-.852-.672-1.546-1.498-1.546h-2.73c-.825 0-1.497.694-1.497 1.546v18.305h-3.102V18.774c0-.852-.671-1.545-1.497-1.545h-2.73c-.826 0-1.497.693-1.497 1.545v10.012H7.569V23.6c0-.852-.672-1.545-1.497-1.545h-2.73c-.826 0-1.498.693-1.498 1.545v5.185H.557A.566.566 0 0 0 0 29.36c0 .317.25.574.557.574h25.886a.566.566 0 0 0 .557-.574.566.566 0 0 0-.557-.575zm-19.988 0H2.958V23.6a.39.39 0 0 1 .383-.396h2.73a.39.39 0 0 1 .384.396v5.185zm8.826 0h-3.497V18.774a.39.39 0 0 1 .384-.395h2.73a.39.39 0 0 1 .383.395v10.012zm8.827 0H20.61V10.48a.39.39 0 0 1 .383-.396h2.73a.39.39 0 0 1 .384.396v18.305zM24.999 1.54a.59.59 0 0 0-.159-.436.527.527 0 0 0-.413-.167l-.026-.002h-3.296c-.301 0-.545.258-.545.575 0 .318.244.575.545.575h2.035l-5.386 5.681-2.03-2.142a.53.53 0 0 0-.386-.169.53.53 0 0 0-.385.169L5.16 15.954a.597.597 0 0 0 0 .813.529.529 0 0 0 .77 0l9.408-9.924 2.031 2.142a.525.525 0 0 0 .77 0l5.771-6.087V4.84c0 .317.244.574.545.574.301 0 .545-.257.545-.574V1.568l-.001-.028z"/>
        <circle cx="3.5" cy="18.435" r="1"/>
    </g>
</svg>
