<svg xmlns="http://www.w3.org/2000/svg" width="35" height="14" viewBox="0 0 35 14">
    <path fill="#FFF" fill-rule="nonzero" d="M34.417 5.833h-1.272C32.59 2.528 29.732 0 26.292 0c-3.396 0-6.24 2.403-6.898 5.588-.566-.475-1.213-.727-1.894-.727-.68 0-1.326.252-1.893.726C14.957 2.402 12.147 0 8.792 0 5.108 0 2.08 2.83 1.78 6.417H.583a.583.583 0 1 0 0 1.166H1.78C2.08 11.17 5.108 14 8.792 14c3.772 0 6.846-3.037 6.948-6.808.498-.75 1.117-1.164 1.76-1.164s1.262.415 1.76 1.164c.104 3.77 3.215 6.808 7.032 6.808 3.837 0 6.958-3.14 6.958-7h1.167a.583.583 0 1 0 0-1.167zm-25.625 7c-3.24 0-5.875-2.617-5.875-5.833s2.636-5.833 5.875-5.833c3.248 0 5.791 2.562 5.791 5.833 0 3.27-2.543 5.833-5.791 5.833zm17.5 0c-3.24 0-5.875-2.617-5.875-5.833s2.636-5.833 5.875-5.833c3.248 0 5.791 2.562 5.791 5.833 0 3.27-2.543 5.833-5.791 5.833z"/>
</svg>
