<svg xmlns="http://www.w3.org/2000/svg" width="23" height="30" viewBox="0 0 23 30">
    <g fill="#363F7C" fill-rule="nonzero">
        <path d="M22.813 6.433l-6.39-6.25a.646.646 0 0 0-.45-.183H2.555C1.146 0 0 1.121 0 2.5v25C0 28.879 1.146 30 2.556 30h17.888C21.854 30 23 28.879 23 27.5V6.875a.618.618 0 0 0-.187-.442zm-6.202-4.3L20.82 6.25h-2.93c-.705 0-1.278-.56-1.278-1.25V2.134zM21.722 27.5c0 .689-.573 1.25-1.278 1.25H2.556c-.705 0-1.278-.561-1.278-1.25v-25c0-.689.573-1.25 1.278-1.25h12.777V5c0 1.379 1.146 2.5 2.556 2.5h3.833v20z"/>
        <path d="M14.757 18.348c-.591-.456-1.153-.924-1.528-1.29-.486-.476-.92-.937-1.297-1.377.588-1.777.846-2.693.846-3.181 0-2.075-.766-2.5-1.917-2.5-.874 0-1.917.444-1.917 2.56 0 .932.523 2.065 1.558 3.38-.254.757-.551 1.629-.886 2.612-.16.472-.335.909-.52 1.313-.15.065-.296.132-.437.2-.508.25-.99.473-1.438.68-2.04.945-3.388 1.57-3.388 2.804 0 .896.996 1.451 1.917 1.451 1.188 0 2.982-1.552 4.292-4.167 1.36-.525 3.05-.914 4.385-1.157 1.07.804 2.25 1.574 2.823 1.574 1.584 0 1.917-.896 1.917-1.647 0-1.478-1.726-1.478-2.556-1.478-.258 0-.949.074-1.854.223zM5.75 23.75c-.365 0-.612-.168-.639-.2 0-.444 1.35-1.07 2.657-1.676l.253-.116c-.96 1.36-1.909 1.992-2.271 1.992zm4.472-11.19c0-1.31.416-1.31.64-1.31.45 0 .638 0 .638 1.25 0 .264-.18.923-.508 1.952-.502-.756-.77-1.403-.77-1.892zm.49 6.717c.04-.108.079-.218.116-.33.237-.695.45-1.32.64-1.883.266.286.552.578.858.878.12.117.417.38.813.71-.788.169-1.626.377-2.427.625zm7.177.326c0 .28 0 .397-.593.4-.174-.036-.576-.268-1.073-.599a4.2 4.2 0 0 1 .388-.029c.944 0 1.212.09 1.278.228z"/>
    </g>
</svg>
