<svg xmlns="http://www.w3.org/2000/svg" width="30" height="30" viewBox="0 0 30 30">
    <path fill="#363F7C" fill-rule="nonzero" d="M15 0C6.728 0 0 6.73 0 15s6.728 15 15 15 15-6.73 15-15S23.272 0 15 0zM8.513 17.609h2.633A3.916 3.916 0 0 0 15 20.869a3.916 3.916 0 0 0 3.854-3.26h2.635c-.328 3.29-3.113 5.87-6.488 5.87-3.376 0-6.16-2.58-6.488-5.87zm3.878-.652V9.13A2.611 2.611 0 0 1 15 6.522a2.611 2.611 0 0 1 2.609 2.608v7.827A2.611 2.611 0 0 1 15 19.565a2.611 2.611 0 0 1-2.609-2.608zm3.261 11.705V24.75c4.011-.333 7.174-3.697 7.174-7.792v-3.261a.652.652 0 1 0-1.304 0v2.608h-2.609V9.13A3.917 3.917 0 0 0 15 5.217a3.917 3.917 0 0 0-3.913 3.913v7.174H8.479v-2.608a.652.652 0 1 0-1.304 0v3.257l-.001.004v.003c.003 4.094 3.165 7.457 7.174 7.79v3.912C7.1 28.32 1.304 22.332 1.304 15 1.304 7.448 7.448 1.304 15 1.304S28.696 7.448 28.696 15c0 7.332-5.796 13.319-13.044 13.662z"/>
</svg>
