<svg xmlns="http://www.w3.org/2000/svg" width="34" height="27" viewBox="0 0 34 27">
    <g fill="#FFF" fill-rule="nonzero">
        <path d="M21.219 13.844l-6.057-3.915a.546.546 0 0 0-.561-.018.562.562 0 0 0-.285.49v7.83c0 .203.11.391.286.49a.544.544 0 0 0 .56-.019l6.057-3.914a.562.562 0 0 0 0-.944zm-5.802 3.368V11.42l4.48 2.896-4.48 2.896z"/>
        <path d="M33.414 0H.586A.585.585 0 0 0 0 .584v25.675c0 .322.263.583.586.583h32.828c.323 0 .586-.26.586-.583V.584A.585.585 0 0 0 33.414 0zM5.862 12.838h-4.69V7.586h4.69v5.252zm-4.69 1.167h4.69v5.251h-4.69v-5.251zm5.862 5.835V1.167h19.932v24.508H7.034V19.84zm25.794-7.002h-4.69V7.586h4.69v5.252zm-4.69 1.167h4.69v5.251h-4.69v-5.251zm4.69-12.838v5.252h-4.69V1.167h4.69zm-31.656 0h4.69v5.252h-4.69V1.167zm0 24.508v-5.252h4.69v5.252h-4.69zm31.656 0h-4.69v-5.252h4.69v5.252z"/>
    </g>
</svg>
